<svg width="334" height="69" viewBox="0 0 334 69" fill="none" xmlns="http://www.w3.org/2000/svg">
<rect width="334" height="69" fill="white"/>
<path d="M62.8219 45.5079V42.1779H67.3219V27.8979H62.8219V24.5679H76.3219V27.8979H71.8219V42.1779H76.3219V45.5079H62.8219ZM86.0602 31.5879H85.7302V45.5079H81.8902V24.5679H87.2902L92.0602 38.4879H92.3902V24.5679H96.2302V45.5079H90.8302L86.0602 31.5879ZM101.468 24.5679H108.218C111.038 24.5679 113.128 25.4679 114.488 27.2679C115.848 29.0679 116.528 31.6579 116.528 35.0379C116.528 38.4179 115.848 41.0079 114.488 42.8079C113.128 44.6079 111.038 45.5079 108.218 45.5079H101.468V24.5679ZM107.918 41.9679C109.258 41.9679 110.238 41.5379 110.858 40.6779C111.478 39.8179 111.788 38.5679 111.788 36.9279V33.1179C111.788 31.4979 111.478 30.2579 110.858 29.3979C110.238 28.5379 109.258 28.1079 107.918 28.1079H105.908V41.9679H107.918ZM121.287 45.5079V42.1779H125.787V27.8979H121.287V24.5679L134.787 24.5679V27.8979L130.287 27.8979V42.1779H134.787V45.5079H121.287ZM140.925 45.5079V24.5679H154.305V28.2579H145.425V33.0579H154.005V36.7479H145.425V41.8179H154.305V45.5079H140.925ZM162.213 38.4879V34.2279H171.813V38.4879H162.213ZM179.812 24.5679H187.162C189.222 24.5679 190.792 25.0679 191.872 26.0679C192.972 27.0679 193.522 28.4279 193.522 30.1479C193.522 31.3479 193.222 32.3079 192.622 33.0279C192.042 33.7279 191.202 34.2379 190.102 34.5579V34.7379C191.402 35.0579 192.402 35.6179 193.102 36.4179C193.822 37.2179 194.182 38.3279 194.182 39.7479C194.182 41.5079 193.622 42.9079 192.502 43.9479C191.402 44.9879 189.852 45.5079 187.852 45.5079H179.812V24.5679ZM186.472 42.3579C187.552 42.3579 188.342 42.1779 188.842 41.8179C189.342 41.4579 189.592 40.7979 189.592 39.8379V38.9679C189.592 38.0079 189.342 37.3479 188.842 36.9879C188.342 36.6279 187.552 36.4479 186.472 36.4479H184.192V42.3579H186.472ZM185.902 33.4479C186.962 33.4479 187.732 33.2779 188.212 32.9379C188.692 32.5779 188.932 31.9379 188.932 31.0179V30.1179C188.932 29.1979 188.692 28.5679 188.212 28.2279C187.732 27.8879 186.962 27.7179 185.902 27.7179H184.192V33.4479H185.902ZM203.14 24.5679V37.8279C203.14 38.4879 203.16 39.0979 203.2 39.6579C203.26 40.1979 203.38 40.6579 203.56 41.0379C203.76 41.4179 204.05 41.7179 204.43 41.9379C204.81 42.1379 205.33 42.2379 205.99 42.2379C206.65 42.2379 207.17 42.1379 207.55 41.9379C207.93 41.7179 208.21 41.4179 208.39 41.0379C208.59 40.6579 208.71 40.1979 208.75 39.6579C208.81 39.0979 208.84 38.4879 208.84 37.8279V24.5679H213.34V37.2279C213.34 38.6679 213.24 39.9279 213.04 41.0079C212.86 42.0879 212.5 42.9879 211.96 43.7079C211.42 44.4279 210.67 44.9679 209.71 45.3279C208.75 45.6879 207.51 45.8679 205.99 45.8679C204.47 45.8679 203.23 45.6879 202.27 45.3279C201.31 44.9679 200.56 44.4279 200.02 43.7079C199.48 42.9879 199.11 42.0879 198.91 41.0079C198.73 39.9279 198.64 38.6679 198.64 37.2279V24.5679H203.14ZM218.728 45.5079V42.1779H223.228V27.8979H218.728V24.5679H232.228V27.8979H227.728V42.1779H232.228V45.5079H218.728ZM238.726 45.5079V24.5679H243.256V41.8179H252.256V45.5079H238.726ZM266.705 28.2579V45.5079H262.205V28.2579H256.175V24.5679H272.735V28.2579H266.705Z" fill="#8D8D8D"/>
<rect x="1.50745" y="2.00793" width="331" height="65" rx="6.5" stroke="url(#paint0_linear_0_1)" stroke-width="3"/>
<defs>
<linearGradient id="paint0_linear_0_1" x1="3.00745" y1="34.5079" x2="331.007" y2="34.5079" gradientUnits="userSpaceOnUse">
<stop stop-color="#8D8D8D"/>
<stop offset="1" stop-color="#646464"/>
</linearGradient>
</defs>
</svg>
