<svg width="194" height="70" viewBox="0 0 194 70" fill="none" xmlns="http://www.w3.org/2000/svg">
<rect width="194" height="70" fill="#F5F5F5"/>
<rect width="54" height="70" rx="8" fill="#4A4A4A"/>
<g filter="url(#filter0_i_2011_2)">
<path d="M21.443 8.25883C28.0083 8.25883 32.793 14.4771 31.1109 20.8232L24.9191 44.1831C24.116 47.2132 26.0193 50.2969 29.0879 50.9373L43.7426 53.9956C48.3615 54.9596 47.6596 61.7588 42.9412 61.7588V61.7588H27.4412C18.6047 61.7588 11.4412 54.5954 11.4412 45.7588V45.7588V18.2606C11.4412 12.7368 15.9192 8.25883 21.443 8.25883V8.25883Z" fill="#F8CA1E"/>
</g>
<path d="M70.7216 43V25.5455H73.8835V40.3494H81.571V43H70.7216ZM84.179 43V29.9091H87.2642V43H84.179ZM85.7301 28.0511C85.2415 28.0511 84.821 27.8892 84.4688 27.5653C84.1165 27.2358 83.9403 26.8409 83.9403 26.3807C83.9403 25.9148 84.1165 25.5199 84.4688 25.196C84.821 24.8665 85.2415 24.7017 85.7301 24.7017C86.2244 24.7017 86.6449 24.8665 86.9915 25.196C87.3438 25.5199 87.5199 25.9148 87.5199 26.3807C87.5199 26.8409 87.3438 27.2358 86.9915 27.5653C86.6449 27.8892 86.2244 28.0511 85.7301 28.0511ZM100.783 33.3693L97.9709 33.6761C97.8913 33.392 97.7521 33.125 97.5533 32.875C97.3601 32.625 97.0987 32.4233 96.7692 32.2699C96.4396 32.1165 96.0362 32.0398 95.5589 32.0398C94.9169 32.0398 94.3771 32.179 93.9396 32.4574C93.5078 32.7358 93.2947 33.0966 93.3004 33.5398C93.2947 33.9205 93.4339 34.2301 93.718 34.4688C94.0078 34.7074 94.4851 34.9034 95.1499 35.0568L97.3828 35.5341C98.6214 35.8011 99.5419 36.2244 100.144 36.804C100.752 37.3835 101.059 38.142 101.065 39.0795C101.059 39.9034 100.817 40.6307 100.34 41.2614C99.8686 41.8864 99.2124 42.375 98.3714 42.7273C97.5305 43.0795 96.5646 43.2557 95.4737 43.2557C93.8714 43.2557 92.5817 42.9205 91.6044 42.25C90.6271 41.5739 90.0447 40.6335 89.8572 39.429L92.8658 39.1392C93.0021 39.7301 93.2919 40.1761 93.7351 40.4773C94.1783 40.7784 94.755 40.929 95.4652 40.929C96.1982 40.929 96.7862 40.7784 97.2294 40.4773C97.6783 40.1761 97.9027 39.804 97.9027 39.3608C97.9027 38.9858 97.7578 38.6761 97.468 38.4318C97.1839 38.1875 96.7408 38 96.1385 37.8693L93.9055 37.4006C92.6499 37.1392 91.7209 36.6989 91.1186 36.0795C90.5163 35.4545 90.218 34.6648 90.2237 33.7102C90.218 32.9034 90.4368 32.2045 90.88 31.6136C91.3288 31.017 91.951 30.5568 92.7464 30.233C93.5476 29.9034 94.4709 29.7386 95.5163 29.7386C97.0504 29.7386 98.2578 30.0653 99.1385 30.7188C100.025 31.3722 100.573 32.2557 100.783 33.3693ZM110.146 29.9091V32.2955H102.62V29.9091H110.146ZM104.478 26.7727H107.563V39.0625C107.563 39.4773 107.626 39.7955 107.751 40.017C107.881 40.233 108.052 40.3807 108.262 40.4602C108.472 40.5398 108.705 40.5795 108.961 40.5795C109.154 40.5795 109.33 40.5653 109.489 40.5369C109.654 40.5085 109.779 40.483 109.864 40.4602L110.384 42.8722C110.219 42.929 109.984 42.9915 109.677 43.0597C109.376 43.1278 109.006 43.1676 108.569 43.179C107.796 43.2017 107.1 43.0852 106.481 42.8295C105.862 42.5682 105.37 42.1648 105.006 41.6193C104.648 41.0739 104.472 40.392 104.478 39.5739V26.7727ZM118.381 43.2557C117.068 43.2557 115.935 42.983 114.98 42.4375C114.031 41.8864 113.301 41.108 112.79 40.1023C112.278 39.0909 112.023 37.9006 112.023 36.5312C112.023 35.1847 112.278 34.0028 112.79 32.9858C113.307 31.9631 114.028 31.1676 114.955 30.5994C115.881 30.0256 116.969 29.7386 118.219 29.7386C119.026 29.7386 119.787 29.8693 120.503 30.1307C121.224 30.3864 121.861 30.7841 122.412 31.3239C122.969 31.8636 123.406 32.5511 123.724 33.3864C124.043 34.2159 124.202 35.2045 124.202 36.3523V37.2983H113.472V35.2188H121.244C121.239 34.6278 121.111 34.1023 120.861 33.642C120.611 33.1761 120.261 32.8097 119.812 32.5426C119.369 32.2756 118.852 32.142 118.261 32.142C117.631 32.142 117.077 32.2955 116.599 32.6023C116.122 32.9034 115.75 33.3011 115.483 33.7955C115.222 34.2841 115.088 34.821 115.082 35.4062V37.2216C115.082 37.983 115.222 38.6364 115.5 39.1818C115.778 39.7216 116.168 40.1364 116.668 40.4261C117.168 40.7102 117.753 40.8523 118.423 40.8523C118.872 40.8523 119.278 40.7898 119.642 40.6648C120.006 40.5341 120.321 40.3438 120.588 40.0938C120.855 39.8438 121.057 39.5341 121.193 39.1648L124.074 39.4886C123.892 40.25 123.545 40.9148 123.034 41.483C122.528 42.0455 121.881 42.483 121.091 42.7955C120.301 43.1023 119.398 43.2557 118.381 43.2557ZM129.897 35.3295V43H126.812V29.9091H129.761V32.1335H129.914C130.215 31.4006 130.695 30.8182 131.354 30.3864C132.019 29.9545 132.84 29.7386 133.817 29.7386C134.721 29.7386 135.508 29.9318 136.178 30.3182C136.854 30.7045 137.377 31.2642 137.746 31.9972C138.121 32.7301 138.306 33.6193 138.3 34.6648V43H135.215V35.142C135.215 34.267 134.988 33.5824 134.533 33.0881C134.085 32.5937 133.462 32.3466 132.667 32.3466C132.127 32.3466 131.647 32.4659 131.227 32.7045C130.812 32.9375 130.485 33.2756 130.246 33.7188C130.013 34.1619 129.897 34.6989 129.897 35.3295ZM152.576 25.5455H155.738V36.9489C155.738 38.1989 155.442 39.2983 154.852 40.2472C154.266 41.196 153.442 41.9375 152.38 42.4716C151.317 43 150.076 43.2642 148.656 43.2642C147.229 43.2642 145.985 43 144.923 42.4716C143.86 41.9375 143.036 41.196 142.451 40.2472C141.866 39.2983 141.573 38.1989 141.573 36.9489V25.5455H144.735V36.6847C144.735 37.4119 144.894 38.0597 145.212 38.6278C145.536 39.196 145.991 39.642 146.576 39.9659C147.161 40.2841 147.854 40.4432 148.656 40.4432C149.457 40.4432 150.15 40.2841 150.735 39.9659C151.326 39.642 151.781 39.196 152.099 38.6278C152.417 38.0597 152.576 37.4119 152.576 36.6847V25.5455ZM169.385 33.3693L166.572 33.6761C166.493 33.392 166.354 33.125 166.155 32.875C165.962 32.625 165.7 32.4233 165.371 32.2699C165.041 32.1165 164.638 32.0398 164.161 32.0398C163.518 32.0398 162.979 32.179 162.541 32.4574C162.109 32.7358 161.896 33.0966 161.902 33.5398C161.896 33.9205 162.036 34.2301 162.32 34.4688C162.609 34.7074 163.087 34.9034 163.751 35.0568L165.984 35.5341C167.223 35.8011 168.143 36.2244 168.746 36.804C169.354 37.3835 169.661 38.142 169.666 39.0795C169.661 39.9034 169.419 40.6307 168.942 41.2614C168.47 41.8864 167.814 42.375 166.973 42.7273C166.132 43.0795 165.166 43.2557 164.075 43.2557C162.473 43.2557 161.183 42.9205 160.206 42.25C159.229 41.5739 158.646 40.6335 158.459 39.429L161.467 39.1392C161.604 39.7301 161.893 40.1761 162.337 40.4773C162.78 40.7784 163.357 40.929 164.067 40.929C164.8 40.929 165.388 40.7784 165.831 40.4773C166.28 40.1761 166.504 39.804 166.504 39.3608C166.504 38.9858 166.359 38.6761 166.07 38.4318C165.786 38.1875 165.342 38 164.74 37.8693L162.507 37.4006C161.251 37.1392 160.322 36.6989 159.72 36.0795C159.118 35.4545 158.82 34.6648 158.825 33.7102C158.82 32.9034 159.038 32.2045 159.482 31.6136C159.93 31.017 160.553 30.5568 161.348 30.233C162.149 29.9034 163.072 29.7386 164.118 29.7386C165.652 29.7386 166.859 30.0653 167.74 30.7188C168.626 31.3722 169.175 32.2557 169.385 33.3693ZM178.006 43.2557C176.693 43.2557 175.56 42.983 174.605 42.4375C173.656 41.8864 172.926 41.108 172.415 40.1023C171.903 39.0909 171.648 37.9006 171.648 36.5312C171.648 35.1847 171.903 34.0028 172.415 32.9858C172.932 31.9631 173.653 31.1676 174.58 30.5994C175.506 30.0256 176.594 29.7386 177.844 29.7386C178.651 29.7386 179.412 29.8693 180.128 30.1307C180.849 30.3864 181.486 30.7841 182.037 31.3239C182.594 31.8636 183.031 32.5511 183.349 33.3864C183.668 34.2159 183.827 35.2045 183.827 36.3523V37.2983H173.097V35.2188H180.869C180.864 34.6278 180.736 34.1023 180.486 33.642C180.236 33.1761 179.886 32.8097 179.438 32.5426C178.994 32.2756 178.477 32.142 177.886 32.142C177.256 32.142 176.702 32.2955 176.224 32.6023C175.747 32.9034 175.375 33.3011 175.108 33.7955C174.847 34.2841 174.713 34.821 174.707 35.4062V37.2216C174.707 37.983 174.847 38.6364 175.125 39.1818C175.403 39.7216 175.793 40.1364 176.293 40.4261C176.793 40.7102 177.378 40.8523 178.048 40.8523C178.497 40.8523 178.903 40.7898 179.267 40.6648C179.631 40.5341 179.946 40.3438 180.213 40.0938C180.48 39.8438 180.682 39.5341 180.818 39.1648L183.699 39.4886C183.517 40.25 183.17 40.9148 182.659 41.483C182.153 42.0455 181.506 42.483 180.716 42.7955C179.926 43.1023 179.023 43.2557 178.006 43.2557ZM186.437 43V29.9091H189.428V32.0909H189.565C189.803 31.3352 190.212 30.7528 190.792 30.3438C191.377 29.929 192.045 29.7216 192.795 29.7216C192.965 29.7216 193.156 29.7301 193.366 29.7472C193.582 29.7585 193.761 29.7784 193.903 29.8068V32.6449C193.772 32.5994 193.565 32.5597 193.281 32.5256C193.002 32.4858 192.732 32.4659 192.471 32.4659C191.908 32.4659 191.403 32.5881 190.954 32.8324C190.511 33.071 190.161 33.4034 189.906 33.8295C189.65 34.2557 189.522 34.7472 189.522 35.304V43H186.437Z" fill="#4A4A4A"/>
<defs>
<filter id="filter0_i_2011_2" x="11.4412" y="8.25883" width="35.4248" height="57.5" filterUnits="userSpaceOnUse" color-interpolation-filters="sRGB">
<feFlood flood-opacity="0" result="BackgroundImageFix"/>
<feBlend mode="normal" in="SourceGraphic" in2="BackgroundImageFix" result="shape"/>
<feColorMatrix in="SourceAlpha" type="matrix" values="0 0 0 0 0 0 0 0 0 0 0 0 0 0 0 0 0 0 127 0" result="hardAlpha"/>
<feOffset dy="4"/>
<feGaussianBlur stdDeviation="2"/>
<feComposite in2="hardAlpha" operator="arithmetic" k2="-1" k3="1"/>
<feColorMatrix type="matrix" values="0 0 0 0 0 0 0 0 0 0 0 0 0 0 0 0 0 0 0.25 0"/>
<feBlend mode="normal" in2="shape" result="effect1_innerShadow_2011_2"/>
</filter>
</defs>
</svg>
