<svg width="149" height="54" viewBox="0 0 149 54" fill="none" xmlns="http://www.w3.org/2000/svg">
<g filter="url(#filter0_i_0_1)">
<path d="M10.443 0.258835C17.0083 0.258835 21.793 6.47707 20.1109 12.8232L13.9191 36.1831C13.116 39.2132 15.0193 42.2969 18.0879 42.9373L32.7426 45.9956C37.3615 46.9596 36.6596 53.7588 31.9412 53.7588V53.7588H16.4412C7.60467 53.7588 0.441223 46.5954 0.441223 37.7588V37.7588L0.441223 10.2606C0.441223 4.73678 4.91917 0.258835 10.443 0.258835V0.258835Z" fill="#F8CA1E"/>
</g>
<path d="M25.517 37V19.5455H29.2074V33.9574H36.6903V37H25.517ZM39.0661 37V23.9091H42.6967V37H39.0661ZM40.8899 22.2216C40.3501 22.2216 39.8871 22.0426 39.5007 21.6847C39.12 21.321 38.9297 20.8864 38.9297 20.3807C38.9297 19.8807 39.12 19.4517 39.5007 19.0938C39.8871 18.7301 40.3501 18.5483 40.8899 18.5483C41.4297 18.5483 41.8899 18.7301 42.2706 19.0938C42.657 19.4517 42.8501 19.8807 42.8501 20.3807C42.8501 20.8864 42.657 21.321 42.2706 21.6847C41.8899 22.0426 41.4297 22.2216 40.8899 22.2216ZM56.4972 27.642L53.1733 27.8466C53.1165 27.5625 52.9943 27.3068 52.8068 27.0795C52.6193 26.8466 52.3722 26.6619 52.0653 26.5256C51.7642 26.3835 51.4034 26.3125 50.983 26.3125C50.4205 26.3125 49.946 26.4318 49.5597 26.6705C49.1733 26.9034 48.9801 27.2159 48.9801 27.608C48.9801 27.9205 49.1051 28.1847 49.3551 28.4006C49.6051 28.6165 50.0341 28.7898 50.642 28.9205L53.0114 29.3977C54.2841 29.6591 55.233 30.0795 55.858 30.6591C56.483 31.2386 56.7955 32 56.7955 32.9432C56.7955 33.8011 56.5426 34.554 56.0369 35.2017C55.5369 35.8494 54.8494 36.3551 53.9744 36.7188C53.1051 37.0767 52.1023 37.2557 50.9659 37.2557C49.233 37.2557 47.8523 36.8949 46.8239 36.1733C45.8011 35.446 45.2017 34.4574 45.0256 33.2074L48.5966 33.0199C48.7045 33.5483 48.9659 33.9517 49.3807 34.2301C49.7955 34.5028 50.3267 34.6392 50.9744 34.6392C51.6108 34.6392 52.1222 34.517 52.5085 34.2727C52.9006 34.0227 53.0994 33.7017 53.1051 33.3097C53.0994 32.9801 52.9602 32.7102 52.6875 32.5C52.4148 32.2841 51.9943 32.1193 51.4261 32.0057L49.1591 31.554C47.8807 31.2983 46.929 30.8551 46.304 30.2244C45.6847 29.5937 45.375 28.7898 45.375 27.8125C45.375 26.9716 45.6023 26.2472 46.0568 25.6392C46.517 25.0312 47.1619 24.5625 47.9915 24.233C48.8267 23.9034 49.804 23.7386 50.9233 23.7386C52.5767 23.7386 53.8778 24.0881 54.8267 24.7869C55.7813 25.4858 56.3381 26.4375 56.4972 27.642ZM66.0447 23.9091V26.6364H58.1612V23.9091H66.0447ZM59.951 20.7727H63.5817V32.9773C63.5817 33.3125 63.6328 33.5739 63.7351 33.7614C63.8374 33.9432 63.9794 34.071 64.1612 34.1449C64.3487 34.2187 64.5646 34.2557 64.8089 34.2557C64.9794 34.2557 65.1499 34.2415 65.3203 34.2131C65.4908 34.179 65.6214 34.1534 65.7124 34.1364L66.2834 36.8381C66.1016 36.8949 65.8459 36.9602 65.5163 37.0341C65.1868 37.1136 64.7862 37.1619 64.3146 37.179C63.4396 37.2131 62.6726 37.0966 62.0135 36.8295C61.3601 36.5625 60.8516 36.1477 60.4879 35.5852C60.1243 35.0227 59.9453 34.3125 59.951 33.4545V20.7727ZM74.2351 37.2557C72.8885 37.2557 71.7294 36.983 70.7578 36.4375C69.7919 35.8864 69.0476 35.108 68.5249 34.1023C68.0021 33.0909 67.7408 31.8949 67.7408 30.5142C67.7408 29.1676 68.0021 27.9858 68.5249 26.9688C69.0476 25.9517 69.7834 25.1591 70.7322 24.5909C71.6868 24.0227 72.8061 23.7386 74.0902 23.7386C74.9538 23.7386 75.7578 23.8778 76.5021 24.1562C77.2521 24.429 77.9055 24.8409 78.4624 25.392C79.0249 25.9432 79.4624 26.6364 79.7749 27.4716C80.0874 28.3011 80.2436 29.2727 80.2436 30.3864V31.3835H69.1896V29.1335H76.826C76.826 28.6108 76.7124 28.1477 76.4851 27.7443C76.2578 27.3409 75.9425 27.0256 75.5391 26.7983C75.1413 26.5653 74.6783 26.4489 74.1499 26.4489C73.5987 26.4489 73.1101 26.5767 72.6839 26.8324C72.2635 27.0824 71.9339 27.4205 71.6953 27.8466C71.4567 28.267 71.3345 28.7358 71.3288 29.2528V31.392C71.3288 32.0398 71.4482 32.5994 71.6868 33.071C71.9311 33.5426 72.2749 33.9062 72.718 34.1619C73.1612 34.4176 73.6868 34.5455 74.2947 34.5455C74.6982 34.5455 75.0675 34.4886 75.4027 34.375C75.7379 34.2614 76.0249 34.0909 76.2635 33.8636C76.5021 33.6364 76.6839 33.358 76.8089 33.0284L80.1669 33.25C79.9964 34.0568 79.647 34.7614 79.1186 35.3636C78.5959 35.9602 77.9197 36.4261 77.0902 36.7614C76.2663 37.0909 75.3146 37.2557 74.2351 37.2557ZM86.2436 29.4318V37H82.6129V23.9091H86.0732V26.2188H86.2266C86.5163 25.4574 87.0021 24.8551 87.6839 24.4119C88.3658 23.9631 89.1925 23.7386 90.1641 23.7386C91.0732 23.7386 91.8658 23.9375 92.5419 24.3352C93.218 24.733 93.7436 25.3011 94.1186 26.0398C94.4936 26.7727 94.6811 27.6477 94.6811 28.6648V37H91.0504V29.3125C91.0561 28.5114 90.8516 27.8864 90.4368 27.4375C90.022 26.983 89.451 26.7557 88.7237 26.7557C88.2351 26.7557 87.8033 26.8608 87.4283 27.071C87.0589 27.2812 86.7692 27.5881 86.5589 27.9915C86.3544 28.3892 86.2493 28.8693 86.2436 29.4318ZM109.662 19.5455H111.776V31.1023C111.776 32.2955 111.494 33.3608 110.932 34.2983C110.375 35.2301 109.588 35.9659 108.571 36.5057C107.554 37.0398 106.361 37.3068 104.991 37.3068C103.622 37.3068 102.429 37.0398 101.412 36.5057C100.395 35.9659 99.6051 35.2301 99.0426 34.2983C98.4858 33.3608 98.2074 32.2955 98.2074 31.1023V19.5455H100.321V30.9318C100.321 31.7841 100.509 32.5426 100.884 33.2074C101.259 33.8665 101.793 34.3864 102.486 34.767C103.185 35.142 104.02 35.3295 104.991 35.3295C105.963 35.3295 106.798 35.142 107.497 34.767C108.196 34.3864 108.73 33.8665 109.099 33.2074C109.474 32.5426 109.662 31.7841 109.662 30.9318V19.5455ZM124.996 26.8409L123.19 27.3523C123.076 27.0511 122.908 26.7585 122.687 26.4744C122.471 26.1847 122.175 25.946 121.8 25.7585C121.425 25.571 120.945 25.4773 120.36 25.4773C119.559 25.4773 118.891 25.6619 118.357 26.0312C117.829 26.3949 117.565 26.858 117.565 27.4205C117.565 27.9205 117.746 28.3153 118.11 28.6051C118.474 28.8949 119.042 29.1364 119.815 29.3295L121.758 29.8068C122.928 30.0909 123.8 30.5256 124.374 31.1108C124.948 31.6903 125.235 32.4375 125.235 33.3523C125.235 34.1023 125.019 34.7727 124.587 35.3636C124.161 35.9545 123.565 36.4205 122.798 36.7614C122.031 37.1023 121.138 37.2727 120.121 37.2727C118.786 37.2727 117.681 36.983 116.806 36.4034C115.931 35.8239 115.377 34.9773 115.144 33.8636L117.053 33.3864C117.235 34.0909 117.579 34.6193 118.085 34.9716C118.596 35.3239 119.263 35.5 120.087 35.5C121.025 35.5 121.769 35.3011 122.32 34.9034C122.877 34.5 123.156 34.017 123.156 33.4545C123.156 33 122.996 32.6193 122.678 32.3125C122.36 32 121.871 31.767 121.212 31.6136L119.031 31.1023C117.832 30.8182 116.951 30.3778 116.388 29.7812C115.832 29.179 115.553 28.4261 115.553 27.5227C115.553 26.7841 115.761 26.1307 116.175 25.5625C116.596 24.9943 117.167 24.5483 117.888 24.2244C118.616 23.9006 119.44 23.7386 120.36 23.7386C121.656 23.7386 122.673 24.0227 123.411 24.5909C124.156 25.1591 124.684 25.9091 124.996 26.8409ZM133.751 37.2727C132.49 37.2727 131.402 36.9943 130.487 36.4375C129.578 35.875 128.876 35.0909 128.382 34.0852C127.893 33.0739 127.649 31.8977 127.649 30.5568C127.649 29.2159 127.893 28.0341 128.382 27.0114C128.876 25.983 129.564 25.1818 130.445 24.608C131.331 24.0284 132.365 23.7386 133.547 23.7386C134.229 23.7386 134.902 23.8523 135.567 24.0795C136.232 24.3068 136.837 24.6761 137.382 25.1875C137.928 25.6932 138.362 26.3636 138.686 27.1989C139.01 28.0341 139.172 29.0625 139.172 30.2841V31.1364H129.081V29.3977H137.126C137.126 28.6591 136.979 28 136.683 27.4205C136.393 26.8409 135.979 26.3835 135.439 26.0483C134.905 25.7131 134.274 25.5455 133.547 25.5455C132.746 25.5455 132.053 25.7443 131.467 26.142C130.888 26.5341 130.442 27.0455 130.129 27.6761C129.817 28.3068 129.661 28.983 129.661 29.7045V30.8636C129.661 31.8523 129.831 32.6903 130.172 33.3778C130.518 34.0597 130.999 34.5795 131.612 34.9375C132.226 35.2898 132.939 35.4659 133.751 35.4659C134.28 35.4659 134.757 35.392 135.183 35.2443C135.615 35.0909 135.987 34.8636 136.3 34.5625C136.612 34.2557 136.854 33.875 137.024 33.4205L138.967 33.9659C138.763 34.625 138.419 35.2045 137.936 35.7045C137.453 36.1989 136.857 36.5852 136.146 36.8636C135.436 37.1364 134.638 37.2727 133.751 37.2727ZM142.232 37V23.9091H144.175V25.8864H144.311C144.55 25.2386 144.982 24.7131 145.607 24.3097C146.232 23.9062 146.936 23.7045 147.72 23.7045C147.868 23.7045 148.053 23.7074 148.274 23.7131C148.496 23.7187 148.663 23.7273 148.777 23.7386V25.7841C148.709 25.767 148.553 25.7415 148.308 25.7074C148.07 25.6676 147.817 25.6477 147.55 25.6477C146.913 25.6477 146.345 25.7812 145.845 26.0483C145.351 26.3097 144.959 26.6733 144.669 27.1392C144.385 27.5994 144.243 28.125 144.243 28.7159V37H142.232Z" fill="#111828"/>
<defs>
<filter id="filter0_i_0_1" x="0.441223" y="0.258835" width="35.4248" height="57.5" filterUnits="userSpaceOnUse" color-interpolation-filters="sRGB">
<feFlood flood-opacity="0" result="BackgroundImageFix"/>
<feBlend mode="normal" in="SourceGraphic" in2="BackgroundImageFix" result="shape"/>
<feColorMatrix in="SourceAlpha" type="matrix" values="0 0 0 0 0 0 0 0 0 0 0 0 0 0 0 0 0 0 127 0" result="hardAlpha"/>
<feOffset dy="4"/>
<feGaussianBlur stdDeviation="2"/>
<feComposite in2="hardAlpha" operator="arithmetic" k2="-1" k3="1"/>
<feColorMatrix type="matrix" values="0 0 0 0 0 0 0 0 0 0 0 0 0 0 0 0 0 0 0.25 0"/>
<feBlend mode="normal" in2="shape" result="effect1_innerShadow_0_1"/>
</filter>
</defs>
</svg>
